<?xml version="1.0" encoding="iso-8859-1"?>
<!-- Generator: Adobe Illustrator 19.0.0, SVG Export Plug-In . SVG Version: 6.00 Build 0)  -->
<svg version="1.1" id="Layer_1" xmlns="http://www.w3.org/2000/svg" xmlns:xlink="http://www.w3.org/1999/xlink" x="0px" y="0px"
	 viewBox="0 0 512 512" style="enable-background:new 0 0 512 512;" xml:space="preserve">
<path style="fill:#4780D1;" d="M120.303,178.377l0.668,18.758l9.52,268.415l131.767,28.27l119.251-28.269l9.52-268.415l0.668-18.758
	L120.303,178.377L120.303,178.377z"/>
<path style="fill:#F73C3C;" d="M256.006,251.24c39.052,0,70.718,31.666,70.718,70.718c0,39.064-31.666,70.729-70.718,70.729
	c-39.064,0-70.729-31.666-70.729-70.729C185.276,282.906,216.942,251.24,256.006,251.24z"/>
<polygon style="fill:#4079BF;" points="391.697,178.377 391.028,197.135 120.972,197.135 120.303,178.377 259.913,151.096 "/>
<g>
	<rect x="230.559" y="281.827" style="fill:#FFFFFF;" width="50.893" height="14.069"/>
	<rect x="211.919" y="314.924" style="fill:#FFFFFF;" width="88.151" height="14.069"/>
</g>
<g>
	<path style="fill:#666666;" d="M182.685,97.557h-14.069V31.478c0-2.447,1.271-4.718,3.357-5.997l19.461-11.935l7.354,11.992
		l-16.105,9.876v62.142H182.685z"/>
	<rect x="248.977" y="53.449" style="fill:#666666;" width="14.069" height="44.108"/>
	<path style="fill:#666666;" d="M343.395,99.121h-14.069V35.416l-16.105-9.876l7.354-11.992l19.461,11.935
		c2.086,1.279,3.357,3.55,3.357,5.997v67.641H343.395z"/>
</g>
<g>
	<polygon style="fill:#E6E6E6;" points="414.828,121.004 414.828,178.377 391.697,178.377 120.303,178.377 97.172,178.377 
		97.172,121.004 	"/>
	<polygon style="fill:#E6E6E6;" points="402.905,465.55 402.905,512 109.107,512 109.107,465.55 130.491,465.55 381.509,465.55 	"/>
</g>
<polygon style="fill:#CCCCCC;" points="414.828,121.004 414.828,151.096 391.697,151.096 120.303,151.096 97.172,151.096 
	97.172,121.004 "/>
<g>
	<path style="fill:#333333;" d="M207.036,0c-10.776,0-19.544,8.767-19.544,19.544c0,10.782,8.767,19.555,19.544,19.555
		c10.776,0,19.544-8.773,19.544-19.555C226.579,8.767,217.812,0,207.036,0z"/>
	<path style="fill:#333333;" d="M304.964,0c-10.776,0-19.544,8.767-19.544,19.544c0,10.782,8.767,19.555,19.544,19.555
		c10.782,0,19.555-8.773,19.555-19.555C324.52,8.767,315.747,0,304.964,0z"/>
	<path style="fill:#333333;" d="M256.006,21.97c-10.782,0-19.555,8.767-19.555,19.544c0,10.782,8.773,19.555,19.555,19.555
		c10.776,0,19.543-8.773,19.543-19.555C275.549,30.737,266.782,21.97,256.006,21.97z"/>
</g>
<polygon style="fill:#E6E6E6;" points="428.474,85.466 428.474,131.916 414.828,131.916 97.172,131.916 83.526,131.916 
	83.526,85.466 175.651,85.466 256.006,85.466 336.361,85.466 "/>
<g>
</g>
<g>
</g>
<g>
</g>
<g>
</g>
<g>
</g>
<g>
</g>
<g>
</g>
<g>
</g>
<g>
</g>
<g>
</g>
<g>
</g>
<g>
</g>
<g>
</g>
<g>
</g>
<g>
</g>
</svg>
