<?xml version="1.0" encoding="iso-8859-1"?>
<!-- Generator: Adobe Illustrator 19.0.0, SVG Export Plug-In . SVG Version: 6.00 Build 0)  -->
<svg version="1.1" id="Layer_1" xmlns="http://www.w3.org/2000/svg" xmlns:xlink="http://www.w3.org/1999/xlink" x="0px" y="0px"
	 viewBox="0 0 512 512" style="enable-background:new 0 0 512 512;" xml:space="preserve">
<path style="fill:#F2F2F2;" d="M349.627,151.892v64.376c0,23.024-11.593,43.775-29.747,56.08c-0.082,0.047-0.151,0.093-0.221,0.14
	c-14.681,9.706-23.735,25.925-23.735,43.519v20.647h-45.966c-6.001-6.012-14.297-9.729-23.467-9.729
	c-9.17,0-17.466,3.717-23.478,9.729c-6.012,6.012-9.729,14.308-9.729,23.478c0,4.474,0.886,8.75,2.505,12.642h-7.69v-53.773
	c0-20.123-4.859-39.907-13.842-57.909c-0.035-0.082-0.07-0.163-0.117-0.233c-7.69-15.695-11.768-33.033-11.768-50.732V84.522
	c0-5.092,2.062-9.694,5.406-13.027c3.332-3.344,7.946-5.406,13.038-5.406c1.911,0,3.752,0.291,5.488,0.827
	c7.504,2.342,12.945,9.345,12.945,17.606V47.189c0-10.184,8.261-18.433,18.445-18.433c1.923,0,3.787,0.291,5.535,0.851
	c2.866,0.897,5.418,2.47,7.492,4.544c3.344,3.332,5.406,7.946,5.406,13.038V18.445C236.128,8.261,244.377,0,254.561,0
	c5.092,0,9.694,2.062,13.038,5.406c3.332,3.332,5.395,7.946,5.395,13.038v23.21c0-8.482,5.721-15.613,13.516-17.769h0.012
	c1.573-0.431,3.216-0.664,4.917-0.664c5.092,0,9.706,2.062,13.038,5.395c3.332,3.344,5.395,7.946,5.395,13.038v110.237
	c0-7.201,3.833-13.504,9.578-16.988c3.006-1.829,6.525-2.878,10.3-2.878c5.488,0,10.452,2.225,14.052,5.814
	C347.402,141.44,349.627,146.404,349.627,151.892z"/>
<rect x="188.105" y="336.653" style="fill:#F73C3C;" width="107.825" height="36.12"/>
<path style="fill:#CCCCCC;" d="M259.688,360.131c0,4.474-0.886,8.75-2.505,12.642H195.79c-1.62-3.892-2.505-8.168-2.505-12.642
	c0-18.34,14.868-33.207,33.207-33.207c9.17,0,17.466,3.717,23.467,9.729C255.971,342.665,259.688,350.962,259.688,360.131z"/>
<rect x="176.384" y="460.511" style="fill:#3570AA;" width="131.257" height="51.489"/>
<rect x="189.189" y="460.511" style="fill:#4780D1;" width="105.658" height="51.489"/>
<g>
	<rect x="176.384" y="463.424" style="fill:#3570AA;" width="131.257" height="19.808"/>
	<polygon style="fill:#3570AA;" points="311.157,371.026 311.157,472.384 299.065,472.384 184.971,472.384 172.879,472.384 
		172.879,371.026 195.15,371.026 201.835,371.026 255.2,371.026 288.875,371.026 	"/>
</g>
<polygon style="fill:#4780D1;" points="298.729,371.026 298.729,472.384 288.81,472.384 195.226,472.384 185.307,472.384 
	185.307,371.026 203.575,371.026 209.058,371.026 252.83,371.026 280.452,371.026 "/>
<circle style="fill:#FFFFFF;" cx="198.464" cy="424.694" r="8.739"/>
<g>
</g>
<g>
</g>
<g>
</g>
<g>
</g>
<g>
</g>
<g>
</g>
<g>
</g>
<g>
</g>
<g>
</g>
<g>
</g>
<g>
</g>
<g>
</g>
<g>
</g>
<g>
</g>
<g>
</g>
</svg>
