<?xml version="1.0" encoding="iso-8859-1"?>
<!-- Generator: Adobe Illustrator 19.0.0, SVG Export Plug-In . SVG Version: 6.00 Build 0)  -->
<svg version="1.1" id="Layer_1" xmlns="http://www.w3.org/2000/svg" xmlns:xlink="http://www.w3.org/1999/xlink" x="0px" y="0px"
	 viewBox="0 0 512 512" style="enable-background:new 0 0 512 512;" xml:space="preserve">
<rect x="74.008" y="35.482" style="fill:#4780D1;" width="344.724" height="444.877"/>
<path style="fill:#F2F2F2;" d="M418.732,195.049l55.998,238.009l-55.998,13.173L273.656,480.36h-0.012L139.155,512l-7.44-31.64
	L74.008,235.106v-0.024L37.269,78.954l36.739-8.648L222,35.495L372.845,0l8.343,35.482l37.544,159.555L418.732,195.049
	L418.732,195.049z"/>
<path style="fill:#F73C3C;" d="M190.542,198.721c-3.359-14.281-14.864-24.516-28.432-26.956
	c11.208-8.738,16.954-23.485,13.49-38.227c-4.757-20.199-24.968-32.714-45.155-27.957c-20.199,4.745-32.714,24.968-27.957,45.155
	c3.431,14.597,14.964,25.176,28.719,28.125c-11.289,8.193-17.172,22.635-13.777,37.058l8.587,36.507l73.111-17.198L190.542,198.721z
	"/>
<g>
	
		<rect x="227.272" y="371.514" transform="matrix(-0.229 -0.9734 0.9734 -0.229 -136.2247 764.3599)" style="fill:#666666;" width="14.637" height="129.229"/>
	
		<rect x="278.357" y="255.341" transform="matrix(-0.229 -0.9734 0.9734 -0.229 -20.8136 747.6411)" style="fill:#666666;" width="14.637" height="253.444"/>
	
		<rect x="268.971" y="215.505" transform="matrix(-0.229 -0.9734 0.9734 -0.229 6.435 689.5386)" style="fill:#666666;" width="14.637" height="253.432"/>
	
		<rect x="259.613" y="175.667" transform="matrix(-0.229 -0.9734 0.9734 -0.229 33.7066 631.4749)" style="fill:#666666;" width="14.637" height="253.444"/>
	
		<rect x="250.23" y="135.844" transform="matrix(-0.229 -0.9734 0.9734 -0.229 60.946 573.3912)" style="fill:#666666;" width="14.637" height="253.432"/>
	
		<rect x="290.581" y="117.707" transform="matrix(-0.229 -0.9734 0.9734 -0.229 183.0221 521.1545)" style="fill:#666666;" width="14.637" height="140.779"/>
	
		<rect x="281.215" y="77.877" transform="matrix(-0.229 -0.9734 0.9734 -0.229 210.2833 463.086)" style="fill:#666666;" width="14.637" height="140.779"/>
	
		<rect x="233.813" y="62.536" transform="matrix(-0.2288 -0.9735 0.9735 -0.2288 200.6448 355.4813)" style="fill:#666666;" width="14.637" height="71.454"/>
</g>
<g>
</g>
<g>
</g>
<g>
</g>
<g>
</g>
<g>
</g>
<g>
</g>
<g>
</g>
<g>
</g>
<g>
</g>
<g>
</g>
<g>
</g>
<g>
</g>
<g>
</g>
<g>
</g>
<g>
</g>
</svg>
