<?xml version="1.0" encoding="iso-8859-1"?>
<!-- Generator: Adobe Illustrator 19.0.0, SVG Export Plug-In . SVG Version: 6.00 Build 0)  -->
<svg version="1.1" id="Layer_1" xmlns="http://www.w3.org/2000/svg" xmlns:xlink="http://www.w3.org/1999/xlink" x="0px" y="0px"
	 viewBox="0 0 512 512" style="enable-background:new 0 0 512 512;" xml:space="preserve">
<path style="fill:#B3B3B3;" d="M256.003,129.529c-2.702,0-4.893-2.191-4.893-4.893V13.281c0-2.702,2.191-4.893,4.893-4.893
	c2.702,0,4.893,2.191,4.893,4.893v111.356C260.896,127.338,258.705,129.529,256.003,129.529z"/>
<g>
	<path style="fill:#F2F2F2;" d="M256.005,120.967c37.947,0,68.712,30.766,68.712,68.712h-2.385H189.679h-2.385
		C187.293,151.733,218.059,120.967,256.005,120.967z"/>
	<rect x="189.684" y="189.679" style="fill:#F2F2F2;" width="132.654" height="48.296"/>
	<polygon style="fill:#F2F2F2;" points="334.48,237.975 334.48,332.547 177.519,332.547 177.519,237.975 189.679,237.975 
		322.332,237.975 	"/>
</g>
<g>
	<path style="fill:#B3B3B3;" d="M334.481,245.313H177.524c-4.053,0-7.34-3.287-7.34-7.34c0-4.053,3.287-7.34,7.34-7.34h156.957
		c4.053,0,7.34,3.287,7.34,7.34C341.821,242.026,338.534,245.313,334.481,245.313z"/>
	<path style="fill:#B3B3B3;" d="M320.983,197.017H191.022c-4.053,0-7.34-3.286-7.34-7.34c0-4.054,3.287-7.34,7.34-7.34h129.96
		c4.053,0,7.34,3.286,7.34,7.34C328.322,193.731,325.036,197.017,320.983,197.017z"/>
</g>
<polygon style="fill:#808080;" points="347.013,342.569 255.993,291.188 164.993,342.569 "/>
<g>
	<path style="fill:#4D4D4D;" d="M219.187,292.104h-12.233v-23.558c0-3.378,2.739-6.116,6.116-6.116l0,0
		c3.378,0,6.116,2.739,6.116,6.116V292.104z"/>
	<path style="fill:#4D4D4D;" d="M305.051,292.104h-12.233v-23.558c0-3.378,2.739-6.116,6.116-6.116l0,0
		c3.378,0,6.116,2.739,6.116,6.116V292.104z"/>
</g>
<polygon style="fill:#F2F2F2;" points="505.532,332.547 505.532,503.6 6.466,503.6 6.466,332.547 177.519,332.547 334.48,332.547 
	"/>
<rect x="119.919" y="332.56" style="fill:#CCCCCC;" width="272.182" height="171.041"/>
<rect x="119.919" y="434.912" style="fill:#E6E6E6;" width="272.182" height="68.688"/>
<g>
	<path style="fill:#4D4D4D;" d="M438.544,410.169h-12.233v-34.291c0-3.378,2.739-6.116,6.116-6.116l0,0
		c3.378,0,6.116,2.739,6.116,6.116V410.169z"/>
	<path style="fill:#4D4D4D;" d="M470.743,410.169H458.51v-34.291c0-3.378,2.739-6.116,6.116-6.116l0,0
		c3.378,0,6.116,2.739,6.116,6.116V410.169z"/>
	<path style="fill:#4D4D4D;" d="M438.544,470.542h-12.233v-34.291c0-3.377,2.739-6.116,6.116-6.116l0,0
		c3.378,0,6.116,2.739,6.116,6.116V470.542z"/>
	<path style="fill:#4D4D4D;" d="M470.743,470.542H458.51v-34.291c0-3.377,2.739-6.116,6.116-6.116l0,0
		c3.378,0,6.116,2.739,6.116,6.116V470.542z"/>
	<path style="fill:#4D4D4D;" d="M53.495,410.169H41.262v-34.291c0-3.378,2.739-6.116,6.116-6.116l0,0
		c3.378,0,6.116,2.739,6.116,6.116V410.169z"/>
	<path style="fill:#4D4D4D;" d="M85.694,410.169H73.461v-34.291c0-3.378,2.739-6.116,6.116-6.116l0,0
		c3.378,0,6.116,2.739,6.116,6.116V410.169z"/>
	<path style="fill:#4D4D4D;" d="M53.495,470.542H41.262v-34.291c0-3.377,2.739-6.116,6.116-6.116l0,0
		c3.378,0,6.116,2.739,6.116,6.116V470.542z"/>
	<path style="fill:#4D4D4D;" d="M85.694,470.542H73.461v-34.291c0-3.377,2.739-6.116,6.116-6.116l0,0
		c3.378,0,6.116,2.739,6.116,6.116V470.542z"/>
</g>
<g>
	<rect x="334.387" y="332.352" style="fill:#808080;" width="11.01" height="102.353"/>
	<rect x="366.302" y="332.352" style="fill:#808080;" width="11.01" height="102.353"/>
	<rect x="270.543" y="332.352" style="fill:#808080;" width="11.01" height="102.353"/>
	<rect x="302.459" y="332.352" style="fill:#808080;" width="11.01" height="102.353"/>
	<rect x="238.615" y="332.352" style="fill:#808080;" width="11.01" height="102.353"/>
	<rect x="142.856" y="332.352" style="fill:#808080;" width="11.01" height="102.353"/>
	<rect x="206.7" y="332.352" style="fill:#808080;" width="11.01" height="102.353"/>
	<rect x="174.772" y="332.352" style="fill:#808080;" width="11.01" height="102.353"/>
</g>
<rect x="190.931" y="434.912" style="fill:#F2F2F2;" width="130.134" height="68.7"/>
<g>
	<rect x="190.931" y="451.439" style="fill:#CCCCCC;" width="130.134" height="12.233"/>
	<rect x="190.931" y="478.352" style="fill:#CCCCCC;" width="130.134" height="12.233"/>
</g>
<path style="fill:#B3B3B3;" d="M504.66,340.911H7.34c-4.053,0-7.34-3.287-7.34-7.34c0-4.053,3.287-7.34,7.34-7.34h497.32
	c4.053,0,7.34,3.287,7.34,7.34C512,337.624,508.713,340.911,504.66,340.911z"/>
<g>
</g>
<g>
</g>
<g>
</g>
<g>
</g>
<g>
</g>
<g>
</g>
<g>
</g>
<g>
</g>
<g>
</g>
<g>
</g>
<g>
</g>
<g>
</g>
<g>
</g>
<g>
</g>
<g>
</g>
</svg>
