<?xml version="1.0" encoding="iso-8859-1"?>
<!-- Generator: Adobe Illustrator 19.0.0, SVG Export Plug-In . SVG Version: 6.00 Build 0)  -->
<svg version="1.1" id="Layer_1" xmlns="http://www.w3.org/2000/svg" xmlns:xlink="http://www.w3.org/1999/xlink" x="0px" y="0px"
	 viewBox="0 0 512 512" style="enable-background:new 0 0 512 512;" xml:space="preserve">
<path style="fill:#F2F2F2;" d="M339.391,58.302c66.029,38.509,88.353,123.264,49.843,189.292
	c-38.521,66.04-123.264,88.353-189.304,49.843s-88.353-123.264-49.843-189.304C188.596,42.105,273.35,19.793,339.391,58.302z"/>
<path style="fill:#F73C3C;" d="M181.227,378.973l-10.909,20.933l-50.142,96.204c-7.621,14.622-25.738,20.174-40.245,12.323
	c-9.92-5.38-15.461-15.553-15.461-25.991c0-5.495,1.529-11.058,4.759-16.036l59.04-91.019l12.852-19.806l26.945-7.311
	L181.227,378.973z"/>
<path style="fill:#4780D1;" d="M352.406,282.163v20.378c-20.982,13.732-45.03,22.017-69.821,24.237
	c-2.308,0.214-4.615,0.366-6.935,0.467V251.95l26.33,26.343l27.944-45.988l2.547-1.753c1.337,1.475,2.623,3.014,3.846,4.59
	C346.403,248.129,352.406,264.446,352.406,282.163z"/>
<polygon style="fill:#DD3636;" points="181.227,378.973 170.318,399.906 163.984,396.216 128.269,375.387 141.12,355.581 
	168.065,348.27 "/>
<path style="fill:#4780D1;" d="M332.469,230.55l-2.547,1.753l-27.944,45.988l-26.33-26.343v75.294
	c-2.308,0.101-4.628,0.152-6.935,0.152c-24.022-0.038-48.321-5.788-70.856-17.792l1.021-1.942v-25.498
	c0-17.716,6.003-34.034,16.09-47.022c1.979-2.547,4.123-4.981,6.406-7.264c1.122-1.122,2.27-2.194,3.455-3.241
	c2.875-2.547,5.94-4.867,9.18-6.973c11.992,7.755,26.292-5.612,41.625-5.612c15.346,0,29.646,13.367,41.638,5.612
	c3.241,2.106,6.318,4.438,9.193,6.986c1.185,1.046,2.332,2.119,3.455,3.241C330.792,228.759,331.637,229.642,332.469,230.55z"/>
<path style="fill:#E6E6E6;" d="M234.011,217.663c-21.147-13.669-35.131-37.452-35.131-64.5c0-0.315,0-0.63,0.013-0.946
	l11.706-25.232c31.878-11.046,41.104-24.734,41.104-24.734c0.013,0,25.239-2.611,25.239-2.611
	c25.863,13.026,20.145,23.32,57.231,23.32l18.12,26.102c0.076,1.35,0.114,2.723,0.114,4.098c0,27.048-13.984,50.831-35.131,64.5
	c-11.992,7.755-26.292,12.269-41.638,12.269C260.303,229.933,246.003,225.418,234.011,217.663z"/>
<path style="fill:#808080;" d="M255.99,78.954c42.546,23.317-2.875,43.681-2.699,44.323c0,0-20.655,17.919-52.533,28.965
	l-1.867-0.025C199.308,117.036,223.418,87.554,255.99,78.954z"/>
<path style="fill:#346DB2;" d="M336.316,235.14l-28.411,46.758c-1.109,1.816-2.989,3.027-5.095,3.278
	c-2.131,0.252-4.237-0.479-5.737-1.979l-14.489-14.501v58.081c-2.308,0.214-4.615,0.366-6.935,0.467
	c-2.308,0.101-4.628,0.152-6.935,0.152v-58.699l-14.489,14.501c-1.312,1.312-3.077,2.03-4.905,2.03
	c-0.277,0-0.555-0.013-0.832-0.051c-2.106-0.252-3.984-1.462-5.095-3.278L214.97,235.14c1.979-2.547,4.123-4.981,6.406-7.264
	c1.122-1.122,2.27-2.194,3.455-3.241l25.825,42.508l24.993-25.006l24.993,25.006l25.825-42.496c1.185,1.046,2.332,2.119,3.455,3.241
	c0.87,0.87,1.715,1.753,2.547,2.661C333.806,232.026,335.092,233.564,336.316,235.14z"/>
<path style="fill:#666666;" d="M352.292,149.065l-1.135,0.076c-37.086,0-71.99-12.837-97.853-25.863c0,0,0,0-0.013,0
	c-0.177-0.643-5.233-18.386,2.699-44.323c6.267-1.665,12.862-2.547,19.647-2.547C316.656,76.407,350.16,108.575,352.292,149.065z"/>
<path style="fill:#CCCCCC;" d="M359.254,24.241c84.835,49.476,113.516,158.37,64.029,243.217
	c-49.269,84.49-157.462,113.274-242.148,64.649l-2-1.161C95.013,281.218,66.735,172.817,116.038,88.281
	C165.513,3.435,274.408-25.234,359.254,24.241z M389.234,247.594c38.509-66.029,16.185-150.783-49.843-189.292
	c-66.04-38.509-150.795-16.197-189.304,49.832c-38.509,66.04-16.197,150.795,49.843,189.304S350.713,313.634,389.234,247.594z"/>
<path style="fill:#F73C3C;" d="M220.162,353.052c8.415,4.908,11.254,15.714,6.345,24.129l-3.38,5.794
	c-4.908,8.415-15.714,11.265-24.129,6.357l-17.772-10.357l-40.107-23.393l-17.772-10.369c-8.415-4.908-11.254-15.703-6.345-24.117
	l3.38-5.805c4.908-8.415,15.714-11.265,24.129-6.357l35.773,20.864c0.31,0.184,0.621,0.368,0.931,0.552
	c0.356,0.207,0.713,0.414,1.069,0.609L220.162,353.052z"/>
<g>
</g>
<g>
</g>
<g>
</g>
<g>
</g>
<g>
</g>
<g>
</g>
<g>
</g>
<g>
</g>
<g>
</g>
<g>
</g>
<g>
</g>
<g>
</g>
<g>
</g>
<g>
</g>
<g>
</g>
</svg>
