<?xml version="1.0" encoding="iso-8859-1"?>
<!-- Generator: Adobe Illustrator 19.0.0, SVG Export Plug-In . SVG Version: 6.00 Build 0)  -->
<svg version="1.1" id="Layer_1" xmlns="http://www.w3.org/2000/svg" xmlns:xlink="http://www.w3.org/1999/xlink" x="0px" y="0px"
	 viewBox="0 0 512 512" style="enable-background:new 0 0 512 512;" xml:space="preserve">
<path style="fill:#F2F2F2;" d="M338.079,372.262l6.358,6.369c3.903,3.903,5.86,9.039,5.86,14.163s-1.957,10.261-5.86,14.175
	c-7.84,7.828-20.521,7.828-28.35,0l-15.001-15.001c3.801,3.88,5.69,8.937,5.69,13.982c0,5.136-1.957,10.261-5.871,14.175
	c-7.817,7.817-20.51,7.817-28.327,0l-19.322-19.311c7.828,7.817,7.828,20.499,0,28.327c-3.903,3.926-9.039,5.883-14.163,5.883
	c-4.333,0-8.665-1.391-12.252-4.186h-0.011c3.643-8.111-27.094-33.237-35.714-24.628c8.62-8.609-16.63-39.379-24.775-35.646
	l-0.973-0.973l-0.701-0.701l-1.618-0.023c4.367-8.326-20.578-34.04-28.723-30.307l-9.774-9.774
	c-17.942-17.942-29.945-40.839-34.572-65.613c-1.267-6.855-4.638-13.145-9.571-18.078l-20.951-20.951l97.085-97.085l27.207,27.207
	c9.672,9.672,24.051,12.534,36.913,7.851c5.362-1.946,11.007-2.919,16.641-2.919c5,0,10.012,0.769,14.831,2.308
	c-4.208,2.591,114.281,182.428,114.281,182.428c3.914,3.903,5.871,9.039,5.871,14.163s-1.957,10.249-5.871,14.163
	C358.589,380.101,345.907,380.101,338.079,372.262z"/>
<path style="fill:#E6E6E6;" d="M411.023,262.348c-4.502,25.091-16.584,48.294-34.719,66.439l-12.512,12.512l-96.463-96.463
	c-0.158-0.158-0.305-0.305-0.441-0.43c-0.079-0.068-0.136-0.136-0.204-0.204c-0.124-0.124-0.238-0.226-0.328-0.317
	c-0.17-0.181-0.26-0.26-0.26-0.26l-13.145-13.157l-32.388,32.388c-4.989,4.989-11.528,7.478-18.066,7.478
	c-6.527,0-13.066-2.489-18.055-7.478c-9.978-9.978-9.978-26.155,0-36.121l55.873-55.885c3.643-3.631,7.613-6.754,11.822-9.344
	c10.362-6.403,22.15-9.604,33.927-9.604c9.129,0,18.27,1.923,26.754,5.769c13.247,6.018,28.813,3.36,39.097-6.923l17.817-17.806
	l81.44,81.44l-0.916,0.916l-30.397,30.397C415.311,250.243,412.166,256.024,411.023,262.348z"/>
<polygon style="fill:#4780D1;" points="512,174.448 460.493,225.966 450.041,215.513 368.601,134.074 357.458,122.931 
	408.976,71.424 "/>
<polygon style="fill:#F73C3C;" points="157.676,128.191 60.591,225.276 51.518,234.349 0,182.831 114.688,68.143 166.206,119.661 
	"/>
<g>
	<circle style="fill:#FFFFFF;" cx="470.166" cy="179.815" r="8.484"/>
	<circle style="fill:#FFFFFF;" cx="45.963" cy="188.198" r="8.484"/>
</g>
<g>
	<path style="fill:#E6E6E6;" d="M159.113,343.018c6.991,6.991,8.303,17.523,3.937,25.849c-1.007,1.923-2.319,3.722-3.937,5.34
		c-8.609,8.609-22.569,8.609-31.189,0c-8.609-8.62-8.609-22.58,0-31.189c1.912-1.912,4.084-3.394,6.403-4.457
		C142.472,334.828,152.416,336.321,159.113,343.018z"/>
	<path style="fill:#E6E6E6;" d="M191.116,375.022c8.62,8.62,8.62,22.58,0,31.189c-8.609,8.609-22.569,8.609-31.178,0
		c-8.62-8.609-8.62-22.569,0-31.189c1.912-1.912,4.084-3.394,6.403-4.457C174.487,366.832,184.419,368.325,191.116,375.022z"/>
	<path style="fill:#E6E6E6;" d="M222.305,406.211c6.652,6.652,8.168,16.516,4.525,24.628c-1.063,2.376-2.568,4.616-4.525,6.561
		c-8.609,8.609-22.569,8.609-31.189,0c-8.609-8.609-8.609-22.58,0-31.189C199.736,397.602,213.696,397.602,222.305,406.211z"/>
</g>
<g>
</g>
<g>
</g>
<g>
</g>
<g>
</g>
<g>
</g>
<g>
</g>
<g>
</g>
<g>
</g>
<g>
</g>
<g>
</g>
<g>
</g>
<g>
</g>
<g>
</g>
<g>
</g>
<g>
</g>
</svg>
